<mxfile host="app.diagrams.net" agent="Mozilla/5.0 (X11; Linux x86_64) AppleWebKit/537.36 (KHTML, like Gecko) Chrome/133.0.0.0 Safari/537.36" version="26.1.1">
  <diagram name="Page-1" id="ehgTFIViRVsaGjMwh4wK">
    <mxGraphModel dx="948" dy="1392" grid="1" gridSize="10" guides="1" tooltips="1" connect="1" arrows="1" fold="1" page="1" pageScale="1" pageWidth="850" pageHeight="1100" math="0" shadow="0">
      <root>
        <mxCell id="0" />
        <mxCell id="1" parent="0" />
        <mxCell id="CktbpL02BFiWpAZWruXm-1" value="Post terminal" style="rounded=0;whiteSpace=wrap;html=1;" parent="1" vertex="1">
          <mxGeometry x="50" y="360" width="120" height="60" as="geometry" />
        </mxCell>
        <mxCell id="CktbpL02BFiWpAZWruXm-2" value="Эквайринговый банк" style="rounded=0;whiteSpace=wrap;html=1;" parent="1" vertex="1">
          <mxGeometry x="50" y="110" width="120" height="60" as="geometry" />
        </mxCell>
        <mxCell id="CktbpL02BFiWpAZWruXm-3" value="" style="endArrow=classic;html=1;rounded=0;entryX=0;entryY=1;entryDx=0;entryDy=0;exitX=0.5;exitY=0;exitDx=0;exitDy=0;" parent="1" source="CktbpL02BFiWpAZWruXm-1" target="CktbpL02BFiWpAZWruXm-2" edge="1">
          <mxGeometry width="50" height="50" relative="1" as="geometry">
            <mxPoint x="270" y="360" as="sourcePoint" />
            <mxPoint x="320" y="310" as="targetPoint" />
          </mxGeometry>
        </mxCell>
        <mxCell id="CktbpL02BFiWpAZWruXm-13" value="Text" style="edgeLabel;html=1;align=center;verticalAlign=middle;resizable=0;points=[];" parent="CktbpL02BFiWpAZWruXm-3" vertex="1" connectable="0">
          <mxGeometry x="-0.3476" y="2" relative="1" as="geometry">
            <mxPoint as="offset" />
          </mxGeometry>
        </mxCell>
        <mxCell id="CktbpL02BFiWpAZWruXm-4" value="" style="endArrow=classic;html=1;rounded=0;exitX=1;exitY=0;exitDx=0;exitDy=0;entryX=0;entryY=0.25;entryDx=0;entryDy=0;" parent="1" source="CktbpL02BFiWpAZWruXm-2" target="CktbpL02BFiWpAZWruXm-5" edge="1">
          <mxGeometry width="50" height="50" relative="1" as="geometry">
            <mxPoint x="380" y="190" as="sourcePoint" />
            <mxPoint x="430" y="140" as="targetPoint" />
          </mxGeometry>
        </mxCell>
        <mxCell id="CktbpL02BFiWpAZWruXm-10" value="Отправляет запрос в платежную систему" style="edgeLabel;html=1;align=center;verticalAlign=middle;resizable=0;points=[];" parent="CktbpL02BFiWpAZWruXm-4" vertex="1" connectable="0">
          <mxGeometry x="-0.1403" y="-1" relative="1" as="geometry">
            <mxPoint as="offset" />
          </mxGeometry>
        </mxCell>
        <mxCell id="CktbpL02BFiWpAZWruXm-5" value="Visa" style="whiteSpace=wrap;html=1;aspect=fixed;" parent="1" vertex="1">
          <mxGeometry x="680" y="110" width="60" height="60" as="geometry" />
        </mxCell>
        <mxCell id="CktbpL02BFiWpAZWruXm-6" value="bank" style="rounded=0;whiteSpace=wrap;html=1;" parent="1" vertex="1">
          <mxGeometry x="540" y="300" width="120" height="60" as="geometry" />
        </mxCell>
        <mxCell id="CktbpL02BFiWpAZWruXm-7" value="" style="endArrow=classic;html=1;rounded=0;exitX=0.5;exitY=1;exitDx=0;exitDy=0;" parent="1" source="CktbpL02BFiWpAZWruXm-5" target="CktbpL02BFiWpAZWruXm-6" edge="1">
          <mxGeometry width="50" height="50" relative="1" as="geometry">
            <mxPoint x="520" y="320" as="sourcePoint" />
            <mxPoint x="570" y="270" as="targetPoint" />
          </mxGeometry>
        </mxCell>
        <mxCell id="CktbpL02BFiWpAZWruXm-11" value="Отправляет данные для проверки баланса и данных карты покупателя" style="edgeLabel;html=1;align=center;verticalAlign=middle;resizable=0;points=[];" parent="CktbpL02BFiWpAZWruXm-7" vertex="1" connectable="0">
          <mxGeometry x="0.13" y="-4" relative="1" as="geometry">
            <mxPoint as="offset" />
          </mxGeometry>
        </mxCell>
        <mxCell id="CktbpL02BFiWpAZWruXm-8" value="баланс магазина" style="rounded=0;whiteSpace=wrap;html=1;" parent="1" vertex="1">
          <mxGeometry x="300" y="420" width="120" height="60" as="geometry" />
        </mxCell>
        <mxCell id="CktbpL02BFiWpAZWruXm-9" value="" style="endArrow=classic;html=1;rounded=0;entryX=1;entryY=0.5;entryDx=0;entryDy=0;" parent="1" source="CktbpL02BFiWpAZWruXm-6" target="CktbpL02BFiWpAZWruXm-8" edge="1">
          <mxGeometry width="50" height="50" relative="1" as="geometry">
            <mxPoint x="510" y="500" as="sourcePoint" />
            <mxPoint x="560" y="450" as="targetPoint" />
          </mxGeometry>
        </mxCell>
        <mxCell id="CktbpL02BFiWpAZWruXm-12" value="Если все хорошо пополняет баланс магазина" style="edgeLabel;html=1;align=center;verticalAlign=middle;resizable=0;points=[];" parent="CktbpL02BFiWpAZWruXm-9" vertex="1" connectable="0">
          <mxGeometry x="-0.1155" y="-3" relative="1" as="geometry">
            <mxPoint as="offset" />
          </mxGeometry>
        </mxCell>
        <mxCell id="CktbpL02BFiWpAZWruXm-14" value="Ответ о состоянии операции" style="endArrow=open;endSize=12;dashed=1;html=1;rounded=0;exitX=0.667;exitY=1.05;exitDx=0;exitDy=0;exitPerimeter=0;" parent="1" source="CktbpL02BFiWpAZWruXm-2" target="CktbpL02BFiWpAZWruXm-1" edge="1">
          <mxGeometry x="-0.4906" y="37" width="160" relative="1" as="geometry">
            <mxPoint x="150" y="320" as="sourcePoint" />
            <mxPoint x="310" y="320" as="targetPoint" />
            <mxPoint as="offset" />
          </mxGeometry>
        </mxCell>
        <mxCell id="CktbpL02BFiWpAZWruXm-15" value="Ответ о состоянии операции" style="endArrow=open;endSize=12;dashed=1;html=1;rounded=0;exitX=-0.033;exitY=0.383;exitDx=0;exitDy=0;exitPerimeter=0;entryX=0.917;entryY=0.967;entryDx=0;entryDy=0;entryPerimeter=0;" parent="1" source="CktbpL02BFiWpAZWruXm-6" target="CktbpL02BFiWpAZWruXm-2" edge="1">
          <mxGeometry x="-0.1599" y="9" width="160" relative="1" as="geometry">
            <mxPoint x="170" y="233" as="sourcePoint" />
            <mxPoint x="110" y="410" as="targetPoint" />
            <mxPoint as="offset" />
          </mxGeometry>
        </mxCell>
        <mxCell id="_tW67WDkLUtXNJOvoAuE-4" value="" style="edgeStyle=orthogonalEdgeStyle;rounded=0;orthogonalLoop=1;jettySize=auto;html=1;curved=0;" edge="1" parent="1" source="_tW67WDkLUtXNJOvoAuE-1" target="_tW67WDkLUtXNJOvoAuE-3">
          <mxGeometry relative="1" as="geometry">
            <Array as="points">
              <mxPoint x="130" y="880" />
              <mxPoint x="130" y="880" />
            </Array>
          </mxGeometry>
        </mxCell>
        <mxCell id="_tW67WDkLUtXNJOvoAuE-6" value="Отправляет запрос в банк" style="edgeLabel;html=1;align=center;verticalAlign=middle;resizable=0;points=[];" vertex="1" connectable="0" parent="_tW67WDkLUtXNJOvoAuE-4">
          <mxGeometry x="-0.1262" y="1" relative="1" as="geometry">
            <mxPoint as="offset" />
          </mxGeometry>
        </mxCell>
        <mxCell id="_tW67WDkLUtXNJOvoAuE-1" value="" style="html=1;points=[[0,0,0,0,5],[0,1,0,0,-5],[1,0,0,0,5],[1,1,0,0,-5]];perimeter=orthogonalPerimeter;outlineConnect=0;targetShapes=umlLifeline;portConstraint=eastwest;newEdgeStyle={&quot;curved&quot;:0,&quot;rounded&quot;:0};" vertex="1" parent="1">
          <mxGeometry x="105" y="850" width="10" height="500" as="geometry" />
        </mxCell>
        <mxCell id="_tW67WDkLUtXNJOvoAuE-9" value="" style="edgeStyle=orthogonalEdgeStyle;rounded=0;orthogonalLoop=1;jettySize=auto;html=1;curved=0;" edge="1" parent="1" source="_tW67WDkLUtXNJOvoAuE-3" target="_tW67WDkLUtXNJOvoAuE-8">
          <mxGeometry relative="1" as="geometry">
            <Array as="points">
              <mxPoint x="440" y="890" />
              <mxPoint x="440" y="890" />
            </Array>
          </mxGeometry>
        </mxCell>
        <mxCell id="_tW67WDkLUtXNJOvoAuE-25" value="Запрос на проверку данных карты" style="edgeLabel;html=1;align=center;verticalAlign=middle;resizable=0;points=[];" vertex="1" connectable="0" parent="_tW67WDkLUtXNJOvoAuE-9">
          <mxGeometry x="0.0524" y="-1" relative="1" as="geometry">
            <mxPoint x="-5" y="-11" as="offset" />
          </mxGeometry>
        </mxCell>
        <mxCell id="_tW67WDkLUtXNJOvoAuE-3" value="" style="html=1;points=[[0,0,0,0,5],[0,1,0,0,-5],[1,0,0,0,5],[1,1,0,0,-5]];perimeter=orthogonalPerimeter;outlineConnect=0;targetShapes=umlLifeline;portConstraint=eastwest;newEdgeStyle={&quot;curved&quot;:0,&quot;rounded&quot;:0};" vertex="1" parent="1">
          <mxGeometry x="290" y="860" width="10" height="490" as="geometry" />
        </mxCell>
        <mxCell id="_tW67WDkLUtXNJOvoAuE-12" value="" style="edgeStyle=orthogonalEdgeStyle;rounded=0;orthogonalLoop=1;jettySize=auto;html=1;curved=0;" edge="1" parent="1" source="_tW67WDkLUtXNJOvoAuE-8" target="_tW67WDkLUtXNJOvoAuE-11">
          <mxGeometry relative="1" as="geometry">
            <mxPoint x="509.9999999999998" y="984.66" as="sourcePoint" />
            <mxPoint x="669.9999999999998" y="984.66" as="targetPoint" />
            <Array as="points">
              <mxPoint x="550" y="960" />
              <mxPoint x="550" y="960" />
            </Array>
          </mxGeometry>
        </mxCell>
        <mxCell id="_tW67WDkLUtXNJOvoAuE-21" value="Запрос данных о балансе" style="edgeLabel;html=1;align=center;verticalAlign=middle;resizable=0;points=[];" vertex="1" connectable="0" parent="_tW67WDkLUtXNJOvoAuE-12">
          <mxGeometry x="-0.2461" y="1" relative="1" as="geometry">
            <mxPoint x="23" y="-9" as="offset" />
          </mxGeometry>
        </mxCell>
        <mxCell id="_tW67WDkLUtXNJOvoAuE-8" value="" style="html=1;points=[[0,0,0,0,5],[0,1,0,0,-5],[1,0,0,0,5],[1,1,0,0,-5]];perimeter=orthogonalPerimeter;outlineConnect=0;targetShapes=umlLifeline;portConstraint=eastwest;newEdgeStyle={&quot;curved&quot;:0,&quot;rounded&quot;:0};" vertex="1" parent="1">
          <mxGeometry x="500" y="850" width="10" height="440" as="geometry" />
        </mxCell>
        <mxCell id="_tW67WDkLUtXNJOvoAuE-11" value="" style="html=1;points=[[0,0,0,0,5],[0,1,0,0,-5],[1,0,0,0,5],[1,1,0,0,-5]];perimeter=orthogonalPerimeter;outlineConnect=0;targetShapes=umlLifeline;portConstraint=eastwest;newEdgeStyle={&quot;curved&quot;:0,&quot;rounded&quot;:0};" vertex="1" parent="1">
          <mxGeometry x="690" y="850" width="10" height="410" as="geometry" />
        </mxCell>
        <mxCell id="_tW67WDkLUtXNJOvoAuE-16" value="Ответ о корректности данных&amp;nbsp;" style="html=1;verticalAlign=bottom;endArrow=open;dashed=1;endSize=8;curved=0;rounded=0;" edge="1" parent="1">
          <mxGeometry relative="1" as="geometry">
            <mxPoint x="500" y="940" as="sourcePoint" />
            <mxPoint x="300" y="940" as="targetPoint" />
            <Array as="points">
              <mxPoint x="440" y="940" />
            </Array>
            <mxPoint as="offset" />
          </mxGeometry>
        </mxCell>
        <mxCell id="_tW67WDkLUtXNJOvoAuE-20" value="Проверка данных карты" style="html=1;align=left;spacingLeft=2;endArrow=block;rounded=0;edgeStyle=orthogonalEdgeStyle;curved=0;rounded=0;" edge="1" target="_tW67WDkLUtXNJOvoAuE-8" parent="1">
          <mxGeometry relative="1" as="geometry">
            <mxPoint x="509.97" y="900" as="sourcePoint" />
            <Array as="points">
              <mxPoint x="540" y="900" />
              <mxPoint x="540" y="930" />
            </Array>
            <mxPoint x="514.97" y="930" as="targetPoint" />
          </mxGeometry>
        </mxCell>
        <mxCell id="_tW67WDkLUtXNJOvoAuE-22" value="Проверка Баланса" style="html=1;align=left;spacingLeft=2;endArrow=block;rounded=0;edgeStyle=orthogonalEdgeStyle;curved=0;rounded=0;" edge="1" parent="1">
          <mxGeometry relative="1" as="geometry">
            <mxPoint x="700" y="970" as="sourcePoint" />
            <Array as="points">
              <mxPoint x="730" y="970" />
              <mxPoint x="730" y="1000" />
            </Array>
            <mxPoint x="700.03" y="1000" as="targetPoint" />
          </mxGeometry>
        </mxCell>
        <mxCell id="_tW67WDkLUtXNJOvoAuE-23" value="Ответ о данных баланса" style="html=1;verticalAlign=bottom;endArrow=open;dashed=1;endSize=8;curved=0;rounded=0;" edge="1" parent="1">
          <mxGeometry relative="1" as="geometry">
            <mxPoint x="690" y="1010" as="sourcePoint" />
            <mxPoint x="510" y="1010" as="targetPoint" />
          </mxGeometry>
        </mxCell>
        <mxCell id="_tW67WDkLUtXNJOvoAuE-24" value="Ответ о корректности данных&amp;nbsp;" style="html=1;verticalAlign=bottom;endArrow=open;dashed=1;endSize=8;curved=0;rounded=0;" edge="1" parent="1">
          <mxGeometry relative="1" as="geometry">
            <mxPoint x="500" y="1020" as="sourcePoint" />
            <mxPoint x="300" y="1020" as="targetPoint" />
          </mxGeometry>
        </mxCell>
        <mxCell id="_tW67WDkLUtXNJOvoAuE-27" value="Транзакция" style="html=1;align=left;spacingLeft=2;endArrow=block;rounded=0;edgeStyle=orthogonalEdgeStyle;curved=0;rounded=0;" edge="1" parent="1">
          <mxGeometry relative="1" as="geometry">
            <mxPoint x="300" y="960" as="sourcePoint" />
            <Array as="points">
              <mxPoint x="330.03" y="960" />
              <mxPoint x="330.03" y="990" />
            </Array>
            <mxPoint x="300.03" y="990" as="targetPoint" />
          </mxGeometry>
        </mxCell>
        <mxCell id="_tW67WDkLUtXNJOvoAuE-28" value="Ответ о статусе операции" style="html=1;verticalAlign=bottom;endArrow=open;dashed=1;endSize=8;curved=0;rounded=0;" edge="1" parent="1">
          <mxGeometry relative="1" as="geometry">
            <mxPoint x="290" y="1000" as="sourcePoint" />
            <mxPoint x="115" y="1000" as="targetPoint" />
            <Array as="points">
              <mxPoint x="255" y="1000" />
            </Array>
            <mxPoint as="offset" />
          </mxGeometry>
        </mxCell>
        <mxCell id="_tW67WDkLUtXNJOvoAuE-29" value="Пополнение счета" style="html=1;align=left;spacingLeft=2;endArrow=block;rounded=0;edgeStyle=orthogonalEdgeStyle;curved=0;rounded=0;" edge="1" parent="1">
          <mxGeometry relative="1" as="geometry">
            <mxPoint x="300" y="1280" as="sourcePoint" />
            <Array as="points">
              <mxPoint x="330.03" y="1280" />
              <mxPoint x="330.03" y="1310" />
            </Array>
            <mxPoint x="300.03" y="1310" as="targetPoint" />
          </mxGeometry>
        </mxCell>
        <mxCell id="_tW67WDkLUtXNJOvoAuE-30" value="Ответ о статусе операции" style="html=1;verticalAlign=bottom;endArrow=open;dashed=1;endSize=8;curved=0;rounded=0;" edge="1" parent="1">
          <mxGeometry relative="1" as="geometry">
            <mxPoint x="290" y="1120" as="sourcePoint" />
            <mxPoint x="115" y="1120" as="targetPoint" />
            <Array as="points">
              <mxPoint x="255" y="1120" />
            </Array>
            <mxPoint as="offset" />
          </mxGeometry>
        </mxCell>
        <mxCell id="_tW67WDkLUtXNJOvoAuE-31" value="Заморозка денег" style="html=1;align=left;spacingLeft=2;endArrow=block;rounded=0;edgeStyle=orthogonalEdgeStyle;curved=0;rounded=0;" edge="1" parent="1">
          <mxGeometry relative="1" as="geometry">
            <mxPoint x="700" y="1090" as="sourcePoint" />
            <Array as="points">
              <mxPoint x="730.03" y="1090" />
              <mxPoint x="730.03" y="1120" />
            </Array>
            <mxPoint x="700.03" y="1120" as="targetPoint" />
          </mxGeometry>
        </mxCell>
        <mxCell id="_tW67WDkLUtXNJOvoAuE-34" value="" style="edgeStyle=orthogonalEdgeStyle;rounded=0;orthogonalLoop=1;jettySize=auto;html=1;curved=0;" edge="1" parent="1">
          <mxGeometry relative="1" as="geometry">
            <mxPoint x="300" y="1060" as="sourcePoint" />
            <mxPoint x="500" y="1060" as="targetPoint" />
            <Array as="points">
              <mxPoint x="440" y="1060" />
              <mxPoint x="440" y="1060" />
            </Array>
          </mxGeometry>
        </mxCell>
        <mxCell id="_tW67WDkLUtXNJOvoAuE-35" value="Запрос на замораживание денег" style="edgeLabel;html=1;align=center;verticalAlign=middle;resizable=0;points=[];" vertex="1" connectable="0" parent="_tW67WDkLUtXNJOvoAuE-34">
          <mxGeometry x="0.0524" y="-1" relative="1" as="geometry">
            <mxPoint x="-5" y="-11" as="offset" />
          </mxGeometry>
        </mxCell>
        <mxCell id="_tW67WDkLUtXNJOvoAuE-36" value="" style="edgeStyle=orthogonalEdgeStyle;rounded=0;orthogonalLoop=1;jettySize=auto;html=1;curved=0;" edge="1" parent="1">
          <mxGeometry relative="1" as="geometry">
            <mxPoint x="510" y="1080" as="sourcePoint" />
            <mxPoint x="690" y="1080" as="targetPoint" />
            <Array as="points">
              <mxPoint x="650" y="1080" />
              <mxPoint x="650" y="1080" />
            </Array>
          </mxGeometry>
        </mxCell>
        <mxCell id="_tW67WDkLUtXNJOvoAuE-37" value="Запрос на замораживание денег" style="edgeLabel;html=1;align=center;verticalAlign=middle;resizable=0;points=[];" vertex="1" connectable="0" parent="_tW67WDkLUtXNJOvoAuE-36">
          <mxGeometry x="0.0524" y="-1" relative="1" as="geometry">
            <mxPoint x="-5" y="-11" as="offset" />
          </mxGeometry>
        </mxCell>
        <mxCell id="_tW67WDkLUtXNJOvoAuE-38" value="Ответ о статусе операции" style="html=1;verticalAlign=bottom;endArrow=open;dashed=1;endSize=8;curved=0;rounded=0;" edge="1" parent="1">
          <mxGeometry x="0.0038" relative="1" as="geometry">
            <mxPoint x="690" y="1130" as="sourcePoint" />
            <mxPoint x="510" y="1130" as="targetPoint" />
            <mxPoint as="offset" />
          </mxGeometry>
        </mxCell>
        <mxCell id="_tW67WDkLUtXNJOvoAuE-39" value="Ответ о статусе операции" style="html=1;verticalAlign=bottom;endArrow=open;dashed=1;endSize=8;curved=0;rounded=0;" edge="1" parent="1" source="_tW67WDkLUtXNJOvoAuE-8">
          <mxGeometry x="0.0038" relative="1" as="geometry">
            <mxPoint x="480" y="1140" as="sourcePoint" />
            <mxPoint x="300" y="1140" as="targetPoint" />
            <mxPoint as="offset" />
          </mxGeometry>
        </mxCell>
        <mxCell id="_tW67WDkLUtXNJOvoAuE-40" value="" style="edgeStyle=orthogonalEdgeStyle;rounded=0;orthogonalLoop=1;jettySize=auto;html=1;curved=0;" edge="1" parent="1">
          <mxGeometry relative="1" as="geometry">
            <mxPoint x="300" y="1180" as="sourcePoint" />
            <mxPoint x="500" y="1180" as="targetPoint" />
            <Array as="points">
              <mxPoint x="440" y="1180" />
              <mxPoint x="440" y="1180" />
            </Array>
          </mxGeometry>
        </mxCell>
        <mxCell id="_tW67WDkLUtXNJOvoAuE-41" value="Запрос на проведение транзакции&amp;nbsp;" style="edgeLabel;html=1;align=center;verticalAlign=middle;resizable=0;points=[];" vertex="1" connectable="0" parent="_tW67WDkLUtXNJOvoAuE-40">
          <mxGeometry x="0.0524" y="-1" relative="1" as="geometry">
            <mxPoint x="-5" y="-11" as="offset" />
          </mxGeometry>
        </mxCell>
        <mxCell id="_tW67WDkLUtXNJOvoAuE-42" value="" style="edgeStyle=orthogonalEdgeStyle;rounded=0;orthogonalLoop=1;jettySize=auto;html=1;curved=0;" edge="1" parent="1" target="_tW67WDkLUtXNJOvoAuE-11">
          <mxGeometry relative="1" as="geometry">
            <mxPoint x="510" y="1200" as="sourcePoint" />
            <mxPoint x="710" y="1200" as="targetPoint" />
            <Array as="points">
              <mxPoint x="640" y="1200" />
              <mxPoint x="640" y="1200" />
            </Array>
          </mxGeometry>
        </mxCell>
        <mxCell id="_tW67WDkLUtXNJOvoAuE-43" value="Запрос на проведение транзакции&amp;nbsp;" style="edgeLabel;html=1;align=center;verticalAlign=middle;resizable=0;points=[];" vertex="1" connectable="0" parent="_tW67WDkLUtXNJOvoAuE-42">
          <mxGeometry x="0.0524" y="-1" relative="1" as="geometry">
            <mxPoint x="-5" y="-11" as="offset" />
          </mxGeometry>
        </mxCell>
        <mxCell id="_tW67WDkLUtXNJOvoAuE-44" value="Списывание средств" style="html=1;align=left;spacingLeft=2;endArrow=block;rounded=0;edgeStyle=orthogonalEdgeStyle;curved=0;rounded=0;" edge="1" parent="1">
          <mxGeometry x="0.0003" relative="1" as="geometry">
            <mxPoint x="700" y="1210" as="sourcePoint" />
            <Array as="points">
              <mxPoint x="730.03" y="1210" />
              <mxPoint x="730.03" y="1240" />
            </Array>
            <mxPoint x="700.03" y="1240" as="targetPoint" />
            <mxPoint as="offset" />
          </mxGeometry>
        </mxCell>
        <mxCell id="_tW67WDkLUtXNJOvoAuE-45" value="Ответ о статусе операции" style="html=1;verticalAlign=bottom;endArrow=open;dashed=1;endSize=8;curved=0;rounded=0;" edge="1" parent="1">
          <mxGeometry x="0.0038" relative="1" as="geometry">
            <mxPoint x="690" y="1250" as="sourcePoint" />
            <mxPoint x="510" y="1250" as="targetPoint" />
            <mxPoint as="offset" />
          </mxGeometry>
        </mxCell>
        <mxCell id="_tW67WDkLUtXNJOvoAuE-46" value="Ответ о статусе операции" style="html=1;verticalAlign=bottom;endArrow=open;dashed=1;endSize=8;curved=0;rounded=0;" edge="1" parent="1" source="_tW67WDkLUtXNJOvoAuE-8">
          <mxGeometry x="0.0038" relative="1" as="geometry">
            <mxPoint x="480" y="1260" as="sourcePoint" />
            <mxPoint x="300" y="1260" as="targetPoint" />
            <mxPoint as="offset" />
          </mxGeometry>
        </mxCell>
        <mxCell id="_tW67WDkLUtXNJOvoAuE-47" value="" style="shape=umlDestroy;whiteSpace=wrap;html=1;strokeWidth=3;targetShapes=umlLifeline;" vertex="1" parent="1">
          <mxGeometry x="680" y="1280" width="30" height="30" as="geometry" />
        </mxCell>
        <mxCell id="_tW67WDkLUtXNJOvoAuE-48" value="Ответ о статусе операции" style="html=1;verticalAlign=bottom;endArrow=open;dashed=1;endSize=8;curved=0;rounded=0;" edge="1" parent="1">
          <mxGeometry relative="1" as="geometry">
            <mxPoint x="290" y="1320" as="sourcePoint" />
            <mxPoint x="115" y="1320" as="targetPoint" />
            <Array as="points">
              <mxPoint x="255" y="1320" />
            </Array>
            <mxPoint as="offset" />
          </mxGeometry>
        </mxCell>
        <mxCell id="_tW67WDkLUtXNJOvoAuE-49" value="" style="shape=umlLifeline;perimeter=lifelinePerimeter;whiteSpace=wrap;html=1;container=1;dropTarget=0;collapsible=0;recursiveResize=0;outlineConnect=0;portConstraint=eastwest;newEdgeStyle={&quot;curved&quot;:0,&quot;rounded&quot;:0};participant=umlActor;" vertex="1" parent="1">
          <mxGeometry x="100" y="780" width="20" height="590" as="geometry" />
        </mxCell>
        <mxCell id="_tW67WDkLUtXNJOvoAuE-50" value="A-Bank" style="shape=umlLifeline;perimeter=lifelinePerimeter;whiteSpace=wrap;html=1;container=1;dropTarget=0;collapsible=0;recursiveResize=0;outlineConnect=0;portConstraint=eastwest;newEdgeStyle={&quot;curved&quot;:0,&quot;rounded&quot;:0};" vertex="1" parent="1">
          <mxGeometry x="245" y="780" width="100" height="590" as="geometry" />
        </mxCell>
        <mxCell id="_tW67WDkLUtXNJOvoAuE-51" value="Платежая система" style="shape=umlLifeline;perimeter=lifelinePerimeter;whiteSpace=wrap;html=1;container=1;dropTarget=0;collapsible=0;recursiveResize=0;outlineConnect=0;portConstraint=eastwest;newEdgeStyle={&quot;curved&quot;:0,&quot;rounded&quot;:0};" vertex="1" parent="1">
          <mxGeometry x="455" y="780" width="100" height="530" as="geometry" />
        </mxCell>
        <mxCell id="_tW67WDkLUtXNJOvoAuE-52" value="B-Bank" style="shape=umlLifeline;perimeter=lifelinePerimeter;whiteSpace=wrap;html=1;container=1;dropTarget=0;collapsible=0;recursiveResize=0;outlineConnect=0;portConstraint=eastwest;newEdgeStyle={&quot;curved&quot;:0,&quot;rounded&quot;:0};" vertex="1" parent="1">
          <mxGeometry x="645" y="780" width="100" height="520" as="geometry" />
        </mxCell>
        <mxCell id="_tW67WDkLUtXNJOvoAuE-53" value="" style="shape=umlDestroy;whiteSpace=wrap;html=1;strokeWidth=3;targetShapes=umlLifeline;" vertex="1" parent="1">
          <mxGeometry x="490" y="1300" width="30" height="30" as="geometry" />
        </mxCell>
        <mxCell id="_tW67WDkLUtXNJOvoAuE-54" value="Pos-Terminal" style="text;html=1;align=center;verticalAlign=middle;resizable=0;points=[];autosize=1;strokeColor=none;fillColor=none;" vertex="1" parent="1">
          <mxGeometry x="65" y="748" width="90" height="30" as="geometry" />
        </mxCell>
        <mxCell id="_tW67WDkLUtXNJOvoAuE-59" value="" style="edgeStyle=orthogonalEdgeStyle;rounded=0;orthogonalLoop=1;jettySize=auto;html=1;curved=0;" edge="1" parent="1" source="_tW67WDkLUtXNJOvoAuE-55" target="_tW67WDkLUtXNJOvoAuE-58">
          <mxGeometry relative="1" as="geometry">
            <Array as="points">
              <mxPoint x="1220" y="880" />
              <mxPoint x="1220" y="880" />
            </Array>
          </mxGeometry>
        </mxCell>
        <mxCell id="_tW67WDkLUtXNJOvoAuE-63" value="Запрос на создание отсчета за последнюю неделю(месяц)" style="edgeLabel;html=1;align=center;verticalAlign=middle;resizable=0;points=[];" vertex="1" connectable="0" parent="_tW67WDkLUtXNJOvoAuE-59">
          <mxGeometry x="-0.0859" y="-1" relative="1" as="geometry">
            <mxPoint x="5" y="-11" as="offset" />
          </mxGeometry>
        </mxCell>
        <mxCell id="_tW67WDkLUtXNJOvoAuE-55" value="" style="html=1;points=[[0,0,0,0,5],[0,1,0,0,-5],[1,0,0,0,5],[1,1,0,0,-5]];perimeter=orthogonalPerimeter;outlineConnect=0;targetShapes=umlLifeline;portConstraint=eastwest;newEdgeStyle={&quot;curved&quot;:0,&quot;rounded&quot;:0};" vertex="1" parent="1">
          <mxGeometry x="1045" y="830" width="10" height="240" as="geometry" />
        </mxCell>
        <mxCell id="_tW67WDkLUtXNJOvoAuE-56" value="" style="shape=umlLifeline;perimeter=lifelinePerimeter;whiteSpace=wrap;html=1;container=1;dropTarget=0;collapsible=0;recursiveResize=0;outlineConnect=0;portConstraint=eastwest;newEdgeStyle={&quot;curved&quot;:0,&quot;rounded&quot;:0};participant=umlActor;" vertex="1" parent="1">
          <mxGeometry x="1040" y="778" width="20" height="322" as="geometry" />
        </mxCell>
        <mxCell id="_tW67WDkLUtXNJOvoAuE-57" value="Бухгалтер" style="text;html=1;align=center;verticalAlign=middle;resizable=0;points=[];autosize=1;strokeColor=none;fillColor=none;" vertex="1" parent="1">
          <mxGeometry x="1010" y="748" width="80" height="30" as="geometry" />
        </mxCell>
        <mxCell id="_tW67WDkLUtXNJOvoAuE-65" value="Отсчет" style="html=1;verticalAlign=bottom;endArrow=open;dashed=1;endSize=8;curved=0;rounded=0;" edge="1" parent="1" source="_tW67WDkLUtXNJOvoAuE-58">
          <mxGeometry relative="1" as="geometry">
            <mxPoint x="1390" y="1020" as="sourcePoint" />
            <mxPoint x="1055" y="1020" as="targetPoint" />
            <mxPoint as="offset" />
          </mxGeometry>
        </mxCell>
        <mxCell id="_tW67WDkLUtXNJOvoAuE-68" value="" style="edgeStyle=orthogonalEdgeStyle;rounded=0;orthogonalLoop=1;jettySize=auto;html=1;curved=0;" edge="1" parent="1">
          <mxGeometry relative="1" as="geometry">
            <mxPoint x="1390" y="900" as="sourcePoint" />
            <mxPoint x="1569.83" y="900" as="targetPoint" />
          </mxGeometry>
        </mxCell>
        <mxCell id="_tW67WDkLUtXNJOvoAuE-69" value="Запрос данных по всем счетам,&lt;div&gt;&lt;span style=&quot;background-color: light-dark(#ffffff, var(--ge-dark-color, #121212)); color: light-dark(rgb(0, 0, 0), rgb(255, 255, 255));&quot;&gt;по всем валютам&amp;nbsp;&lt;/span&gt;&lt;/div&gt;" style="edgeLabel;html=1;align=center;verticalAlign=middle;resizable=0;points=[];" vertex="1" connectable="0" parent="_tW67WDkLUtXNJOvoAuE-68">
          <mxGeometry x="0.2697" y="-3" relative="1" as="geometry">
            <mxPoint x="-24" y="-23" as="offset" />
          </mxGeometry>
        </mxCell>
        <mxCell id="_tW67WDkLUtXNJOvoAuE-66" value="Bank-B" style="shape=umlLifeline;perimeter=lifelinePerimeter;whiteSpace=wrap;html=1;container=1;dropTarget=0;collapsible=0;recursiveResize=0;outlineConnect=0;portConstraint=eastwest;newEdgeStyle={&quot;curved&quot;:0,&quot;rounded&quot;:0};" vertex="1" parent="1">
          <mxGeometry x="1310" y="760" width="145" height="320" as="geometry" />
        </mxCell>
        <mxCell id="_tW67WDkLUtXNJOvoAuE-58" value="" style="html=1;points=[[0,0,0,0,5],[0,1,0,0,-5],[1,0,0,0,5],[1,1,0,0,-5]];perimeter=orthogonalPerimeter;outlineConnect=0;targetShapes=umlLifeline;portConstraint=eastwest;newEdgeStyle={&quot;curved&quot;:0,&quot;rounded&quot;:0};" vertex="1" parent="_tW67WDkLUtXNJOvoAuE-66">
          <mxGeometry x="67.5" y="65" width="10" height="245" as="geometry" />
        </mxCell>
        <mxCell id="_tW67WDkLUtXNJOvoAuE-76" value="База данных" style="shape=umlLifeline;perimeter=lifelinePerimeter;whiteSpace=wrap;html=1;container=1;dropTarget=0;collapsible=0;recursiveResize=0;outlineConnect=0;portConstraint=eastwest;newEdgeStyle={&quot;curved&quot;:0,&quot;rounded&quot;:0};size=40;" vertex="1" parent="1">
          <mxGeometry x="1502.5" y="760" width="145" height="260" as="geometry" />
        </mxCell>
        <mxCell id="_tW67WDkLUtXNJOvoAuE-83" value="" style="shape=umlDestroy;whiteSpace=wrap;html=1;strokeWidth=3;targetShapes=umlLifeline;" vertex="1" parent="_tW67WDkLUtXNJOvoAuE-76">
          <mxGeometry x="57.5" y="240" width="30" height="30" as="geometry" />
        </mxCell>
        <mxCell id="_tW67WDkLUtXNJOvoAuE-81" value="Подсчет обьема по&amp;nbsp;&lt;div&gt;каждому валютному счету&amp;nbsp;&lt;/div&gt;&lt;div&gt;банка с пересчетом на сомы&lt;/div&gt;" style="html=1;align=left;spacingLeft=2;endArrow=block;rounded=0;edgeStyle=orthogonalEdgeStyle;curved=0;rounded=0;" edge="1" parent="1">
          <mxGeometry x="0.7784" y="25" relative="1" as="geometry">
            <mxPoint x="1390" y="960" as="sourcePoint" />
            <Array as="points">
              <mxPoint x="1420" y="960" />
              <mxPoint x="1420" y="990" />
            </Array>
            <mxPoint x="1390.03" y="990" as="targetPoint" />
            <mxPoint as="offset" />
          </mxGeometry>
        </mxCell>
        <mxCell id="_tW67WDkLUtXNJOvoAuE-72" value="" style="html=1;points=[[0,0,0,0,5],[0,1,0,0,-5],[1,0,0,0,5],[1,1,0,0,-5]];perimeter=orthogonalPerimeter;outlineConnect=0;targetShapes=umlLifeline;portConstraint=eastwest;newEdgeStyle={&quot;curved&quot;:0,&quot;rounded&quot;:0};" vertex="1" parent="1">
          <mxGeometry x="1570" y="830" width="10" height="140" as="geometry" />
        </mxCell>
        <mxCell id="_tW67WDkLUtXNJOvoAuE-82" value="Данные" style="html=1;verticalAlign=bottom;endArrow=open;dashed=1;endSize=8;curved=0;rounded=0;" edge="1" parent="1" source="_tW67WDkLUtXNJOvoAuE-72">
          <mxGeometry relative="1" as="geometry">
            <mxPoint x="1713" y="938.41" as="sourcePoint" />
            <mxPoint x="1390" y="938.41" as="targetPoint" />
            <mxPoint as="offset" />
          </mxGeometry>
        </mxCell>
      </root>
    </mxGraphModel>
  </diagram>
</mxfile>
